<svg width="62" height="62" viewBox="0 0 62 62" fill="none" xmlns="http://www.w3.org/2000/svg">
<g filter="url(#filter0_d_160_3570)">
<circle cx="31" cy="31" r="25" fill="white"/>
<circle cx="31" cy="31" r="23" stroke="black" stroke-width="4"/>
</g>
<mask id="path-3-inside-1_160_3570" fill="white">
<path d="M23 25C23 23.8954 23.8954 23 25 23H35C37.2091 23 39 24.7909 39 27V35C39 37.2091 37.2091 39 35 39H27C24.7909 39 23 37.2091 23 35V25Z"/>
</mask>
<path d="M23 25C23 23.8954 23.8954 23 25 23H35C37.2091 23 39 24.7909 39 27V35C39 37.2091 37.2091 39 35 39H27C24.7909 39 23 37.2091 23 35V25Z" fill="white" stroke="black" stroke-width="8" stroke-linejoin="round" mask="url(#path-3-inside-1_160_3570)"/>
<defs>
<filter id="filter0_d_160_3570" x="0" y="0" width="62" height="62" filterUnits="userSpaceOnUse" color-interpolation-filters="sRGB">
<feFlood flood-opacity="0" result="BackgroundImageFix"/>
<feColorMatrix in="SourceAlpha" type="matrix" values="0 0 0 0 0 0 0 0 0 0 0 0 0 0 0 0 0 0 127 0" result="hardAlpha"/>
<feMorphology radius="2" operator="dilate" in="SourceAlpha" result="effect1_dropShadow_160_3570"/>
<feOffset/>
<feGaussianBlur stdDeviation="2"/>
<feComposite in2="hardAlpha" operator="out"/>
<feColorMatrix type="matrix" values="0 0 0 0 0 0 0 0 0 0 0 0 0 0 0 0 0 0 0.25 0"/>
<feBlend mode="normal" in2="BackgroundImageFix" result="effect1_dropShadow_160_3570"/>
<feBlend mode="normal" in="SourceGraphic" in2="effect1_dropShadow_160_3570" result="shape"/>
</filter>
</defs>
</svg>
